General
      Complete name : Snow.White.And.The.Seven.Dwarfs.1937.BRRip.H264.AAC.5.1ch.Gopo.mp4
      Format : MPEG-4
      Format profile : Base Media
      Codec ID : isom
      File size : 1.10 GiB
      Duration : 1h 23mn
      Overall bit rate : 1 895 Kbps
      Encoded date : UTC 2010-01-19 12:04:35
      Tagged date : UTC 2010-01-19 12:04:35
   Video #1
      ID : 1
      Format : AVC
      Format/Info : Advanced Video Codec
      Format profile : High@L4.1
      Format settings, CABAC : Yes
      Format settings, ReFrames : 5 frames
      Codec ID : avc1
      Codec ID/Info : Advanced Video Coding
      Duration : 1h 23mn
      Bit rate mode : Variable
      Bit rate : 1 619 Kbps
      Maximum bit rate : 7 537 Kbps
      Width : 960 pixels
      Height : 720 pixels
      Display aspect ratio : 4:3
      Frame rate mode : Constant
      Frame rate : 23.976 fps
      Resolution : 24 bits
      Colorimetry : 4:2:0
      Scan type : Progressive
      Bits/(Pixel*Frame) : 0.098
      Stream size : 963 MiB (85%)
      Writing library : x264 core 83 r1391 3d0f110
      Encoding settings : cabac=1 / ref=5 / deblock=1:0:0 / analyse=0x3:0x113 / me=umh / subme=7 / psy=1 / psy_rd=1.0:0.0 / mixed_ref=1 / me_range=16 / chroma_me=1 / trellis=2 / 8x8dct=1 / cqm=0 / deadzone=21,11 / fast_pskip=1 / chroma_qp_offset=-2 / threads=1 / sliced_threads=0 / nr=0 / decimate=1 / mbaff=0 / constrained_intra=0 / bframes=3 / b_pyramid=0 / b_adapt=2 / b_bias=0 / direct=3 / wpredb=1 / wpredp=2 / keyint=250 / keyint_min=25 / scenecut=40 / intra_refresh=0 / rc_lookahead=30 / rc=2pass / mbtree=1 / bitrate=1619 / ratetol=1.0 / qcomp=0.50 / qpmin=10 / qpmax=51 / qpstep=4 / cplxblur=20.0 / qblur=0.5 / vbv_maxrate=24000 / vbv_bufsize=24000 / ip_ratio=1.10 / aq=1:1.00
      Encoded date : UTC 2010-01-18 15:37:40
      Tagged date : UTC 2010-01-19 12:05:50
   Audio #2
      ID : 2
      Format : AAC
      Format/Info : Advanced Audio Codec
      Format version : Version 4
      Format profile : LC
      Format settings, SBR : No
      Codec ID : 40
      Duration : 1h 23mn
      Bit rate mode : Variable
      Bit rate : 272 Kbps
      Maximum bit rate : 380 Kbps
      Channel(s) : 6 channels
      Channel positions : Front: L C R, Rear: L R, LFE
      Sampling rate : 48.0 KHz
      Resolution : 16 bits
      Stream size : 162 MiB (14%)
      Encoded date : UTC 2010-01-19 12:05:38
      Tagged date : UTC 2010-01-19 12:05:50
	Sample : YES
	Subtitle : English,Romanian

PLOT

Snow White, pursued by a jealous queen, hides with the Dwarfs; the queen feeds her a poison apple, but Prince Charming awakens her with a kiss.
Director: David Hand
CASTING 
     
      Roy Atwell	... 	Doc (voice) (uncredited)
	Stuart Buchanan	... 	Huntsman (voice) (uncredited)
	Adriana Caselotti	... 	Snow White (voice) (uncredited)
	Eddie Collins	... 	Dopey / Chipmunk & Squirrel sneezes (voice) (uncredited)
	Pinto Colvig	... 	Sleepy / Grumpy (voice) (uncredited)
	Marion Darlington	... 	Birds (voice) (uncredited)
	Billy Gilbert	... 	Sneezy (voice) (uncredited)
	Otis Harlan	... 	Happy (voice) (uncredited)
	Lucille La Verne	... 	Queen / Witch (voice) (uncredited)
	James MacDonald	... 	Yodeling Man (voice) (uncredited)
	Scotty Mattraw	... 	Bashful (voice) (uncredited)
	Moroni Olsen	... 	Magic Mirror (voice) (uncredited)
	Purv Pullen	... 	Birds (voice) (uncredited)
	Harry Stockwell	... 	Prince (voice) (uncredited)

SOURCE: snow.white.and.the.seven.dwarfs.1937.720p.bluray.x264-cinefile.mkv

Notes: For best performance I suggest you to use KMPlayer(find it with google) for playback
I haven't tested the movies on a PS3 or Xbox or other devices than PC because I don't own one of them but feel free to test them if you have the oportunity.
